<svg width="145" height="144" viewBox="0 0 145 144" fill="none" xmlns="http://www.w3.org/2000/svg">
<ellipse cx="72.998" cy="80.0962" rx="72" ry="16.5034" fill="#3D4A5A"/>
<path d="M116.996 93.1605V80.4132C116.996 56.1126 97.2966 36.4131 72.9961 36.4131C48.6956 36.4131 28.9961 56.1126 28.9961 80.4132V93.1605C41.1637 95.3167 56.4262 96.5997 72.9961 96.5997C89.566 96.5997 104.829 95.3167 116.996 93.1605Z" fill="#188FFF"/>
<path d="M101.487 95.2587C103.105 91.5009 104.002 87.3591 104.002 83.0079C104.002 65.887 90.1228 52.0078 73.002 52.0078C55.8811 52.0078 42.002 65.887 42.002 83.0079C42.002 87.3591 42.8984 91.5009 44.5167 95.2587C53.2529 96.1222 62.8837 96.6006 73.002 96.6006C83.1202 96.6006 92.751 96.1222 101.487 95.2587Z" fill="white"/>
<path fill-rule="evenodd" clip-rule="evenodd" d="M88.1969 82.9999C88.1969 88.889 84.8477 93.9959 79.9502 96.5198C77.663 96.57 75.3446 96.5957 73 96.5957C70.6532 96.5957 68.3326 96.57 66.0433 96.5197C61.1459 93.9957 57.7969 88.8889 57.7969 82.9999C57.7969 74.6051 64.6021 67.7998 72.9969 67.7998C75.0234 67.7998 76.9572 68.1964 78.7251 68.9161C77.1721 70.0006 76.1562 71.8011 76.1562 73.8389C76.1562 77.1526 78.8425 79.8389 82.1562 79.8389C84.1944 79.8389 85.9952 78.8227 87.0796 77.2692C87.8 79.0378 88.1969 80.9725 88.1969 82.9999Z" fill="#0A0D14"/>
</svg>
